
        <svg xmlns="http://www.w3.org/2000/svg" viewBox="0 0 48 48" width="48" height="48">
          <rect width="48" height="48" fill="#4f028b"/>
          <g transform="translate(7.199999999999999, 13.841860465116278) scale(0.7813953488372093)">
            <path d="M41.7516 0.772278C40.3747 -0.738047 36.7734 0.232875 35.3965 1.41956C34.0196 2.60624 24.6987 8.97118 24.6987 8.97118C24.6987 8.97118 18.2377 8.86331 15.166 8.86331C11.9885 8.86331 12.0944 11.0209 13.7891 11.4524C15.4838 11.884 17.4962 13.1785 17.4962 13.1785L10.7174 17.9253C10.7174 17.9253 7.01029 17.0622 3.40906 16.307C-0.192176 15.5519 -0.827688 17.6016 0.97293 18.7883C2.77355 19.975 10.5056 24.6138 10.5056 24.6138L20.7797 19.2198C20.7797 19.2198 20.9916 22.1326 20.9916 23.6429C20.9916 25.1532 22.5803 27.4187 23.9573 24.7217C25.3342 22.0247 28.3 14.6888 28.3 14.6888C28.3 14.6888 37.9386 7.2451 39.7392 5.73477C41.4339 4.11657 43.0226 2.39048 41.7516 0.772278ZM38.2563 4.00869C36.5616 5.51901 27.0289 12.9628 26.923 12.9628L26.4993 13.2864L26.2875 13.8258C26.2875 13.9337 24.4869 18.3568 23.004 21.4853C22.8981 20.1907 22.7922 19.0041 22.7922 18.8962L22.4744 15.8755L10.5056 22.1326C9.23459 21.3774 6.90438 19.975 4.99784 18.7883C7.85764 19.3277 10.1879 19.975 10.2938 19.975L11.247 20.1907L21.4152 13.0706L18.6614 11.3446C18.5554 11.3446 18.4495 11.2367 18.1318 11.0209C21.2034 11.0209 24.6987 11.1288 24.6987 11.1288H25.3342L25.8638 10.6973C26.8171 10.05 35.2906 4.22445 36.6675 3.03776C36.9853 2.71412 38.0445 2.2826 39.1037 2.17472H39.951C39.8451 2.49836 39.4214 3.03777 38.2563 4.00869Z" fill="#ffffff"/>
          </g>
        </svg>
      